<?xml version="1.0" standalone="no"?>
<!DOCTYPE svg PUBLIC "-//W3C//DTD SVG 20010904//EN"
 "http://www.w3.org/TR/2001/REC-SVG-20010904/DTD/svg10.dtd">
<svg version="1.0" xmlns="http://www.w3.org/2000/svg"
 width="500.000000pt" height="500.000000pt" viewBox="0 0 500.000000 500.000000"
 preserveAspectRatio="xMidYMid meet">

<g transform="translate(0.000000,500.000000) scale(0.100000,-0.100000)"
fill="#000000" stroke="none">
<path d="M0 2500 l0 -2500 2500 0 2500 0 0 2500 0 2500 -2500 0 -2500 0 0
-2500z m2985 1382 c303 -99 622 -204 710 -232 88 -28 181 -61 207 -73 l46 -22
-280 -565 c-154 -311 -349 -704 -433 -875 -84 -170 -291 -589 -459 -929 l-307
-619 -18 30 c-10 16 -92 176 -181 354 -89 178 -208 414 -265 524 -56 110 -216
425 -355 700 -139 275 -354 699 -477 942 -123 244 -222 446 -219 451 7 12 91
47 176 73 41 12 349 114 685 225 335 111 612 201 615 199 3 -1 253 -84 555
-183z"/>
<path d="M1773 3731 c-359 -119 -655 -219 -658 -223 -4 -3 127 -271 291 -595
164 -323 410 -808 546 -1078 406 -803 453 -894 455 -892 2 3 22 1002 29 1549
4 262 10 482 14 488 4 6 160 74 346 151 186 78 470 195 629 261 160 66 291
121 293 123 2 2 -250 87 -560 189 -310 102 -601 198 -648 214 l-85 28 -652
-215z"/>
</g>
</svg>
